<?xml version="1.0" encoding="UTF-8" standalone="no"?>
        <svg 
    viewBox="17.138671875 -72.509765625 439.453125 52.001953125"
    width="422.314453125"
    height="124.51171875"
   xmlns="http://www.w3.org/2000/svg"
   xmlns:svg="http://www.w3.org/2000/svg">
   <path d="M19.04-26.37L19.04-26.37L20.95-28.71L71.78-28.71L71.34-33.69Q71.19-35.01 71.19-36.04L71.19-36.04Q71.19-38.53 72.29-40.21Q73.39-41.89 78.22-44.24L78.22-44.24L82.91-46.88L66.50-46.58Q60.79-46.44 57.13-46.44L57.13-46.44Q53.47-46.44 51.20-46.66Q48.93-46.88 48.05-48.49L48.05-48.49Q46.58-50.54 46.58-51.86Q46.58-53.17 48.05-55.08L48.05-55.08Q48.93-56.40 51.05-56.91Q53.17-57.42 58.59-57.42L58.59-57.42Q62.55-57.71 65.19-57.86Q67.82-58.01 68.12-58.15L68.12-58.15Q68.41-58.15 68.48-59.99Q68.55-61.82 68.55-62.99L68.55-62.99Q68.55-65.19 68.41-67.97L68.41-67.97L68.41-75.59Q68.41-79.10 68.12-80.13L68.12-80.13L68.12-82.76L64.16-78.81Q60.50-75.29 56.40-72.44Q52.29-69.58 47.90-67.38L47.90-67.38Q45.70-66.36 42.92-64.67Q40.14-62.99 38.09-61.67L38.09-61.67Q33.11-58.15 31.27-57.71Q29.44-57.28 28.71-57.28L28.71-57.28Q26.81-57.28 25.49-58.74L25.49-58.74Q23.73-60.21 23.73-62.11L23.73-62.11Q23.73-63.13 24.68-65.19Q25.63-67.24 31.20-70.02L31.20-70.02Q38.09-73.97 47.46-80.20Q56.84-86.43 57.86-87.74L57.86-87.74Q57.86-88.04 57.06-88.11Q56.25-88.18 55.81-88.18L55.81-88.18Q54.93-88.18 53.91-88.04L53.91-88.04Q43.07-87.01 35.96-86.57Q28.86-86.13 26.22-86.13L26.22-86.13Q22.12-86.13 20.95-86.72L20.95-86.72Q19.04-87.45 18.60-89.06Q18.16-90.67 18.16-91.55L18.16-91.55Q18.16-92.87 18.90-94.04L18.90-94.04Q19.34-94.92 20.65-95.65Q21.97-96.39 23.88-96.68L23.88-96.68Q27.54-97.71 38.23-98.29Q48.93-98.88 59.77-98.88L59.77-98.88L67.09-98.88L67.68-104.59Q67.68-106.93 68.19-108.91Q68.70-110.89 69.14-111.77L69.14-111.77Q70.61-113.23 72.80-113.23L72.80-113.23Q73.10-113.23 74.41-113.16Q75.73-113.09 77.05-110.89L77.05-110.89Q77.93-110.16 78.44-108.33Q78.96-106.49 79.25-104.30L79.25-104.30L79.98-99.90L104.74-99.90Q115.14-99.90 122.46-99.61Q129.79-99.32 130.66-99.02L130.66-99.02Q132.28-98.00 132.35-96.90Q132.42-95.80 132.42-95.65L132.42-95.65Q132.42-93.60 131.40-91.70L131.40-91.70Q130.66-90.09 128.91-89.72Q127.15-89.36 121.73-89.36L121.73-89.36Q117.92-89.36 112.13-89.21Q106.35-89.06 101.37-88.77L101.37-88.77Q92.87-88.33 91.63-88.11Q90.38-87.89 90.38-87.60L90.38-87.60Q90.38-87.30 91.41-86.72L91.41-86.72Q93.46-84.81 99.39-81.96Q105.32-79.10 115.28-74.56L115.28-74.56Q123.78-70.90 126.27-68.85Q128.76-66.80 128.76-64.89L128.76-64.89Q128.76-64.16 128.47-63.43L128.47-63.43Q127.73-60.79 124.37-60.79L124.37-60.79Q123.49-60.79 120.34-61.38Q117.19-61.96 102.98-67.97L102.98-67.97Q92.43-72.66 86.94-74.56Q81.45-76.46 80.42-76.46L80.42-76.46Q80.27-76.46 80.27-76.46L80.27-76.46Q79.98-76.17 79.83-73.90Q79.69-71.63 79.69-68.26L79.69-68.26Q79.69-64.60 79.32-62.18Q78.96-59.77 78.37-59.33L78.37-59.33Q78.22-59.18 78.22-59.03L78.22-59.03Q78.22-58.59 79.61-58.30Q81.01-58.01 86.28-58.01L86.28-58.01Q94.19-58.01 98.07-56.91Q101.95-55.81 102.10-53.76L102.10-53.76Q102.25-52.88 102.25-52.29L102.25-52.29Q102.25-50.68 101.15-49.29Q100.05-47.90 97.71-47.46L97.71-47.46Q94.78-46.58 90.31-42.63Q85.84-38.67 84.81-36.04L84.81-36.04Q84.67-35.60 84.67-35.01L84.67-35.01Q84.67-34.57 84.81-33.62Q84.96-32.67 85.55-31.64L85.55-31.64L86.57-28.71L107.96-28.42Q123.05-28.42 126.71-28.05Q130.37-27.69 130.96-26.07L130.96-26.07Q132.71-23.88 132.71-22.56Q132.71-21.24 130.96-19.48L130.96-19.48Q130.08-17.87 126.42-17.58Q122.75-17.29 108.69-17.29L108.69-17.29L88.48-17.29L87.89-10.55Q87.16-1.76 84.74 3.52Q82.32 8.79 78.66 9.81L78.66 9.81Q78.52 9.81 78.22 9.81L78.22 9.81Q75.59 9.81 71.04 6.67Q66.50 3.52 64.45 0.29L64.45 0.29Q63.72-1.61 63.72-3.22L63.72-3.22Q63.72-5.27 65.04-6.37Q66.36-7.47 67.82-7.47L67.82-7.47Q69.73-7.47 72.07-6.01L72.07-6.01L75-3.96L75.73-6.01Q76.03-7.03 76.46-8.86Q76.90-10.69 77.05-12.89L77.05-12.89Q77.20-14.50 77.20-15.53L77.20-15.53Q77.20-16.26 77.05-16.77Q76.90-17.29 75.59-17.29L75.59-17.29L47.61-17.29L21.68-17.14L19.34-19.48Q17.29-21.53 17.21-22.19Q17.14-22.85 17.14-22.85L17.14-22.85Q17.14-24.02 19.04-26.37ZM166.55-57.71L166.55-57.71Q166.55-58.15 166.55-58.45L166.55-58.45Q166.55-61.82 169.19-62.92Q171.83-64.01 182.81-64.45L182.81-64.45Q188.67-64.75 195.41-65.04Q202.15-65.33 206.54-65.33L206.54-65.33L216.80-65.33L216.80-88.04Q216.80-102.69 217.09-107.23Q217.38-111.77 218.41-112.21L218.41-112.21Q219.29-112.79 220.02-113.31Q220.75-113.82 221.63-114.11L221.63-114.11Q222.22-114.26 222.80-114.26L222.80-114.26Q223.68-114.26 225-113.89Q226.32-113.53 227.20-112.50L227.20-112.50Q227.64-111.77 227.93-105.40Q228.22-99.02 228.52-89.06L228.52-89.06L228.66-66.94L248.29-66.65Q266.89-66.65 271.44-66.36Q275.98-66.06 276.71-64.45L276.71-64.45Q278.47-62.84 278.47-61.23L278.47-61.23Q278.47-61.08 278.39-60.13Q278.32-59.18 276.12-57.42L276.12-57.42Q274.80-55.52 271.95-55.30Q269.09-55.08 257.96-55.08L257.96-55.08L242.43-55.08L242.43-36.33Q242.43-33.69 242.43-31.20L242.43-31.20Q242.43-19.48 243.75-15.09Q245.07-10.69 250.93-8.06L250.93-8.06Q253.56-6.45 256.20-5.93Q258.84-5.42 263.53-5.42L263.53-5.42Q266.02-5.27 267.63-5.27L267.63-5.27Q269.24-5.27 270.48-5.49Q271.73-5.71 271.73-7.03L271.73-7.03Q272.75-10.99 274.88-11.65Q277.00-12.30 277.88-12.30L277.88-12.30Q280.08-12.30 281.69-9.96L281.69-9.96Q282.57-8.94 283.08-6.81Q283.59-4.69 283.59-2.34L283.59-2.34Q283.74-1.17 283.74-0.29L283.74-0.29Q283.74 3.81 281.47 4.76Q279.20 5.71 272.46 5.71L272.46 5.71Q269.53 5.71 265.58 5.57L265.58 5.57Q259.57 5.42 254.59 4.83Q249.61 4.25 247.71 4.10L247.71 4.10Q243.75 2.49 238.77-2.56Q233.79-7.62 232.62-10.99L232.62-10.99Q232.18-12.30 231.88-18.90Q231.59-25.49 231.30-34.13L231.30-34.13L230.86-54.49L223.39-54.20Q219.29-53.91 217.53-53.54Q215.77-53.17 215.77-52.44L215.77-52.44Q215.48-49.22 212.62-39.18Q209.77-29.15 207.57-24.76L207.57-24.76Q202.59-15.23 193.80-5.35Q185.01 4.54 177.54 8.20L177.54 8.20Q173.88 10.11 173.14 10.18Q172.41 10.25 172.27 10.25L172.27 10.25Q171.09 10.25 169.63 9.38L169.63 9.38Q168.31 8.20 167.87 7.40Q167.43 6.59 167.43 5.57L167.43 5.57Q167.43 5.13 167.58 4.54L167.58 4.54Q167.87 2.78 169.04 1.46Q170.21 0.15 173.14-2.05L173.14-2.05Q178.86-6.01 184.79-12.08Q190.72-18.16 193.95-22.85L193.95-22.85Q196.29-27.10 198.41-32.23Q200.54-37.35 202.59-44.53L202.59-44.53Q204.35-48.78 204.35-50.83L204.35-50.83Q204.35-52.29 203.32-52.88Q202.29-53.47 196.58-53.47L196.58-53.47Q193.07-53.47 187.65-53.17L187.65-53.17Q183.98-53.03 181.05-53.03L181.05-53.03Q172.85-53.03 169.63-53.69Q166.41-54.35 166.41-56.98L166.41-56.98Q166.41-57.28 166.55-57.71ZM183.69-98.58L183.69-98.58Q184.42-99.32 185.45-99.98Q186.47-100.63 187.35-100.63L187.35-100.63Q189.11-100.34 192.55-96.39Q196.00-92.43 199.22-86.43L199.22-86.43Q202.15-80.57 202.29-78.81Q202.44-77.05 202.44-76.76L202.44-76.76Q202.44-73.83 200.24-72.36L200.24-72.36Q198.93-71.63 197.75-71.63L197.75-71.63Q196.44-71.63 194.53-72.80Q192.63-73.97 190.28-78.81L190.28-78.81Q188.96-81.15 187.35-84.01Q185.74-86.87 184.42-88.77L184.42-88.77Q182.08-92.72 181.93-93.75Q181.79-94.78 181.79-94.92L181.79-94.92Q181.79-96.68 183.69-98.58ZM245.95-83.94L245.95-83.94Q246.09-85.40 247.12-88.48L247.12-88.48Q250.05-95.95 251.51-98.66Q252.98-101.37 254.30-101.95L254.30-101.95Q255.91-103.27 257.08-103.27L257.08-103.27Q257.37-103.27 258.11-103.13Q258.84-102.98 260.16-100.93L260.16-100.93Q261.18-99.76 261.18-97.71L261.18-97.71Q261.18-97.12 260.89-95.29Q260.60-93.46 258.25-86.72L258.25-86.72Q256.64-81.88 255.10-79.76Q253.56-77.64 251.66-77.64L251.66-77.64Q249.61-77.64 248.51-78.44Q247.41-79.25 246.39-81.45L246.39-81.45Q245.95-82.32 245.95-83.35L245.95-83.35Q245.95-83.64 245.95-83.94ZM360.64-40.28L360.64-40.28Q362.40-42.48 365.33-45.85Q368.26-49.22 370.61-52.73L370.61-52.73Q373.24-55.81 375.73-58.59Q378.22-61.38 379.83-62.40L379.83-62.40Q382.47-64.31 383.20-64.45Q383.94-64.60 384.08-64.60L384.08-64.60Q385.11-64.60 386.43-63.72L386.43-63.72Q388.33-62.70 388.33-61.01Q388.33-59.33 386.43-56.98L386.43-56.98Q385.69-56.10 385.18-55.22Q384.67-54.35 384.67-54.05L384.67-54.05Q384.67-53.76 387.38-53.47Q390.09-53.17 394.34-53.17L394.34-53.17L404.15-53.17L405.18-56.98Q405.76-58.74 406.64-60.06Q407.52-61.38 408.40-61.96L408.40-61.96Q409.57-62.40 410.60-62.55L410.60-62.55Q411.77-62.40 413.23-61.67Q414.70-60.94 415.43-58.30L415.43-58.30L416.02-55.96Q416.31-54.79 416.46-54.49L416.46-54.49Q416.46-54.05 417.92-53.61Q419.38-53.17 421.73-53.17L421.73-53.17Q426.86-53.03 431.18-52.37Q435.50-51.71 436.52-50.83L436.52-50.83Q438.13-49.22 438.13-47.24Q438.13-45.26 436.82-43.80L436.82-43.80Q435.79-42.19 433.81-41.75Q431.84-41.31 425.54-41.31L425.54-41.31L416.31-41.31L415.72-36.04L422.90-36.04Q428.32-36.04 430.59-35.01Q432.86-33.98 432.86-31.64L432.86-31.64Q432.86-28.71 430.59-27.39Q428.32-26.07 422.61-25.78L422.61-25.78Q417.33-25.49 416.16-25.12Q414.99-24.76 414.99-23.73L414.99-23.73Q414.99-23.44 414.99-23.14L414.99-23.14Q414.99-21.09 416.46-20.80L416.46-20.80Q417.33-20.80 419.68-20.65Q422.02-20.51 424.66-20.21L424.66-20.21Q427.29-20.21 429.57-19.85Q431.84-19.48 432.57-18.90L432.57-18.90Q433.59-17.87 433.67-16.77Q433.74-15.67 433.74-15.38L433.74-15.38Q433.74-13.92 433.15-12.60L433.15-12.60Q432.13-11.28 428.69-10.47Q425.24-9.67 420.41-9.52L420.41-9.52Q419.38-9.52 418.51-9.52L418.51-9.52Q416.46-9.52 415.72-9.30Q414.99-9.08 414.99-7.91L414.99-7.91Q414.99-7.62 414.99-7.32L414.99-7.32Q414.99-7.03 414.99-6.88L414.99-6.88Q414.99-5.57 416.53-5.13Q418.07-4.69 425.68-4.39L425.68-4.39Q434.18-3.96 436.82-2.93Q439.45-1.90 439.45 0.44L439.45 0.44Q439.45 0.73 439.45 1.03L439.45 1.03Q439.45 1.90 439.16 2.93Q438.87 3.96 438.72 4.83L438.72 4.83Q438.72 6.15 433.52 6.37Q428.32 6.59 408.11 6.59L408.11 6.59Q390.09 6.59 383.50 6.37Q376.90 6.15 376.46 5.27L376.46 5.27Q374.85 4.25 374.05-3.00Q373.24-10.25 373.24-24.76L373.24-24.76Q372.95-29.00 372.88-32.15Q372.80-35.30 372.51-35.60L372.51-35.60Q372.51-35.60 372.36-35.60L372.36-35.60Q371.92-35.60 370.75-34.79Q369.58-33.98 367.97-32.37L367.97-32.37Q365.63-30.32 364.01-29.37Q362.40-28.42 360.94-28.42L360.94-28.42Q356.10-28.42 356.03-30.10Q355.96-31.79 355.96-31.93L355.96-31.93Q355.96-35.16 360.64-40.28ZM312.45-71.78L312.45-71.78Q314.50-72.80 321.53-73.83L321.53-73.83Q325.49-74.27 328.27-74.56Q331.05-74.85 331.35-74.85L331.35-74.85L331.35-79.83Q331.35-84.38 331.05-91.26L331.05-91.26Q330.62-99.76 330.62-103.56L330.62-103.56Q330.62-104.15 330.69-106.13Q330.76-108.11 331.93-108.54L331.93-108.54Q333.25-110.01 335.16-110.01L335.16-110.01Q335.30-110.01 336.47-109.94Q337.65-109.86 339.55-108.40L339.55-108.40Q340.58-107.52 340.80-104.96Q341.02-102.39 341.02-99.02L341.02-99.02Q341.02-95.65 340.87-90.67L340.87-90.67L340.87-75.15L349.51-75.15Q350.98-75.15 352.15-75.15L352.15-75.15Q358.59-75.15 361.60-73.83Q364.60-72.51 364.60-68.85L364.60-68.85Q364.60-68.41 364.60-68.12L364.60-68.12Q364.60-65.77 362.84-64.75Q361.08-63.72 355.66-63.57L355.66-63.57Q353.17-63.28 351.34-62.84Q349.51-62.40 349.22-61.96L349.22-61.96Q349.07-60.64 349.07-56.84L349.07-56.84Q349.07-50.98 349.58-35.52Q350.10-20.07 350.83-16.11L350.83-16.11Q350.98-15.97 351.12-15.97L351.12-15.97Q351.42-15.97 352.29-16.55Q353.17-17.14 354.79-18.90L354.79-18.90Q358.45-22.85 361.67-22.85L361.67-22.85Q361.96-22.85 363.79-22.63Q365.63-22.41 365.92-17.58L365.92-17.58Q365.92-12.89 358.74-7.91L358.74-7.91Q356.98-6.59 354.86-4.98Q352.73-3.37 351.12-2.34L351.12-2.34Q348.34-0.59 346.14-0.59L346.14-0.59Q345.85-0.59 344.38-0.81Q342.92-1.03 341.16-3.66L341.16-3.66Q339.99-4.69 339.62-10.25Q339.26-15.82 339.26-31.93L339.26-31.93Q338.96-50.54 338.45-55.00Q337.94-59.47 337.21-59.47L337.21-59.47Q336.77-59.47 336.33-58.30L336.33-58.30Q335.60-56.69 333.76-48.63Q331.93-40.58 329.74-30.03L329.74-30.03Q328.42-22.85 326.22-14.87Q324.02-6.88 322.12-2.64L322.12-2.64Q320.21 1.90 319.04 2.12Q317.87 2.34 317.58 2.34L317.58 2.34Q315.67 2.34 313.62-1.03L313.62-1.03Q312.45-3.66 312.45-6.15L312.45-6.15Q312.45-6.45 312.52-7.98Q312.60-9.52 314.21-12.89L314.21-12.89Q314.94-14.50 315.89-16.63Q316.85-18.75 317.14-20.07L317.14-20.07Q318.75-26.81 320.80-41.60Q322.85-56.40 322.85-61.38L322.85-61.38Q322.85-61.67 321.53-62.04Q320.21-62.40 318.46-62.40L318.46-62.40Q314.79-62.70 312.67-64.16Q310.55-65.63 310.55-67.68L310.55-67.68Q310.55-67.97 310.55-68.41L310.55-68.41Q310.55-70.75 312.45-71.78ZM366.21-108.54L366.21-108.54Q366.94-109.72 369.95-109.94Q372.95-110.16 382.47-110.16L382.47-110.16Q385.84-110.30 388.62-110.30L388.62-110.30Q397.85-110.30 399.76-108.11Q401.66-105.91 401.66-95.21L401.66-95.21Q401.66-92.14 401.51-88.33L401.51-88.33Q401.66-82.76 401.66-78.96L401.66-78.96Q401.66-73.24 401.29-70.61Q400.93-67.97 399.17-66.94L399.17-66.94Q397.85-65.33 397.27-65.19Q396.68-65.04 396.39-65.04L396.39-65.04Q395.65-65.04 394.63-65.63L394.63-65.63Q392.58-66.65 391.92-68.26Q391.26-69.87 391.26-73.83L391.26-73.83L391.26-78.52L384.67-75.44Q381.15-73.24 379.39-72.80Q377.64-72.36 376.61-72.36L376.61-72.36Q376.03-72.36 375.59-72.51L375.59-72.51Q373.24-73.24 373.17-74.34Q373.10-75.44 373.10-75.59L373.10-75.59Q373.10-77.64 375.44-79.10L375.44-79.10Q376.17-79.83 378.81-81.30Q381.45-82.76 384.38-84.67L384.38-84.67L391.26-88.62L391.26-98.88L386.13-99.17Q384.08-99.17 381.30-99.24Q378.52-99.32 376.46-99.32L376.46-99.32Q370.61-99.32 368.77-99.76Q366.94-100.20 366.21-101.22L366.21-101.22Q364.60-102.83 364.60-104.81Q364.60-106.79 366.21-108.54ZM404.59-104.59L404.59-104.59Q404.59-106.20 406.49-107.81L406.49-107.81Q407.52-108.54 410.96-108.84Q414.40-109.13 422.61-109.13L422.61-109.13Q426.27-109.28 428.91-109.28L428.91-109.28Q433.01-109.28 435.21-108.91Q437.40-108.54 437.55-107.52L437.55-107.52Q438.43-104.59 438.50-97.05Q438.57-89.50 438.57-87.60L438.57-87.60Q438.57-77.05 437.84-70.61L437.84-70.61Q437.55-67.53 437.04-66.28Q436.52-65.04 434.91-64.60L434.91-64.60Q433.89-64.16 433.01-64.16L433.01-64.16Q432.71-64.16 432.13-64.23Q431.54-64.31 430.22-65.33L430.22-65.33Q428.32-66.36 428.17-67.53Q428.03-68.70 428.03-70.02L428.03-70.02Q428.03-71.78 428.17-74.56L428.17-74.56Q428.17-76.32 428.17-77.64L428.17-77.64Q428.17-79.69 428.03-80.49Q427.88-81.30 427.44-81.30L427.44-81.30Q427.29-81.30 427.00-81.15L427.00-81.15Q426.56-80.86 424.73-79.54Q422.90-78.22 420.70-76.76L420.70-76.76Q416.46-73.83 415.21-73.54Q413.96-73.24 413.67-73.24L413.67-73.24Q412.06-73.24 410.74-74.85L410.74-74.85Q409.42-76.46 409.42-78.08L409.42-78.08Q409.42-78.37 409.64-79.54Q409.86-80.71 412.06-81.45L412.06-81.45Q412.79-82.03 415.28-83.35Q417.77-84.67 420.70-86.43L420.70-86.43Q424.95-88.77 426.56-90.23Q428.17-91.70 428.32-93.31L428.32-93.31Q428.47-94.04 428.47-94.78L428.47-94.78Q428.47-95.07 428.39-95.80Q428.32-96.53 428.17-96.97L428.17-96.97Q427.88-97.27 424.95-97.78Q422.02-98.29 417.77-98.58L417.77-98.58Q412.50-99.17 409.86-99.83Q407.23-100.49 406.20-101.22L406.20-101.22Q404.59-102.69 404.59-104.30L404.59-104.30Q404.59-104.44 404.59-104.59ZM348.93-93.90L348.93-93.90Q351.12-100.63 353.47-104.44L353.47-104.44Q354.35-105.47 355.66-105.47L355.66-105.47Q356.10-105.47 357.20-105.32Q358.30-105.18 359.77-103.56L359.77-103.56Q361.52-102.10 361.52-100.34L361.52-100.34Q361.52-100.20 361.45-99.24Q361.38-98.29 359.33-91.70L359.33-91.70Q357.42-85.40 356.40-83.57Q355.37-81.74 353.47-80.86L353.47-80.86Q352.44-80.27 351.42-80.27L351.42-80.27Q350.54-80.27 349.15-81.01Q347.75-81.74 347.17-84.08L347.17-84.08Q347.02-84.67 347.02-85.40L347.02-85.40Q347.02-88.33 348.93-93.90ZM313.04-96.68L313.04-96.68Q313.48-97.85 314.50-98.58L314.50-98.58Q316.26-100.63 317.87-100.63L317.87-100.63Q318.90-100.63 320.51-99.10Q322.12-97.56 324.17-89.06L324.17-89.06Q325.49-83.79 325.78-82.10Q326.07-80.42 326.07-79.83L326.07-79.83Q326.07-78.52 325.49-78.08L325.49-78.08Q324.32-76.17 322.71-76.17L322.71-76.17Q321.09-76.17 318.16-78.81Q315.23-81.45 313.62-88.77L313.62-88.77Q313.62-90.38 313.26-91.99Q312.89-93.60 312.89-94.63L312.89-94.63Q312.74-94.92 312.74-95.36L312.74-95.36Q312.74-95.95 313.04-96.68ZM384.81-22.41L384.81-22.41Q385.11-21.09 386.57-20.65Q388.04-20.21 393.60-20.07L393.60-20.07Q396.97-20.07 399.46-20.14Q401.95-20.21 402.25-20.21L402.25-20.21Q402.83-20.51 402.91-21.17Q402.98-21.83 402.98-22.12L402.98-22.12Q402.98-22.85 402.83-23.73L402.83-23.73L402.25-26.37L394.04-26.66Q393.02-26.66 391.99-26.66L391.99-26.66Q387.16-26.66 385.84-26.15Q384.52-25.63 384.52-24.02L384.52-24.02Q384.52-23.29 384.81-22.41ZM384.67-37.79L384.67-37.79Q386.43-37.35 393.02-37.21L393.02-37.21Q396.39-37.06 398.58-37.06L398.58-37.06Q399.76-37.06 401.44-37.13Q403.13-37.21 403.27-37.65L403.27-37.65L403.27-40.58Q403.27-41.60 401.88-41.82Q400.49-42.04 398.44-42.04L398.44-42.04Q396.24-42.04 393.02-41.89L393.02-41.89Q386.43-41.60 384.74-41.09Q383.06-40.58 383.06-39.84L383.06-39.84Q383.06-39.70 383.06-39.55L383.06-39.55Q383.06-39.40 383.06-39.26L383.06-39.26Q383.06-38.23 384.67-37.79ZM374.12-94.92L374.12-94.92L375.59-96.39Q376.17-96.97 376.46-96.97L376.46-96.97Q376.76-96.68 377.78-95.95Q378.81-95.21 380.13-93.90L380.13-93.90Q383.64-90.53 383.64-87.89L383.64-87.89Q383.64-87.74 383.50-86.21Q383.35-84.67 379.10-84.67L379.10-84.67Q378.08-84.67 375.95-86.87Q373.83-89.06 372.95-91.26L372.95-91.26Q372.80-91.70 372.80-92.29L372.80-92.29Q372.80-93.60 374.12-94.92ZM411.18-95.65L411.18-95.65Q412.21-96.83 413.53-96.83L413.53-96.83Q416.02-96.83 419.09-92.29L419.09-92.29Q420.41-90.09 420.41-89.21Q420.41-88.33 419.09-87.01L419.09-87.01Q417.92-85.69 416.89-85.69L416.89-85.69Q416.75-85.69 416.09-85.84Q415.43-85.99 413.09-88.04L413.09-88.04Q410.74-89.94 410.45-91.19Q410.16-92.43 410.16-93.02L410.16-93.02Q410.16-94.48 411.18-95.65ZM385.40-7.03L385.40-7.03Q385.40-6.74 385.40-6.59L385.40-6.59Q385.40-5.57 386.72-5.13Q388.04-4.69 394.04-4.69L394.04-4.69Q400.20-4.69 401.37-5.05Q402.54-5.42 402.54-6.59L402.54-6.59Q402.54-6.74 402.54-7.03L402.54-7.03Q402.54-7.32 402.54-7.62L402.54-7.62Q402.54-8.94 401.59-9.23Q400.63-9.52 397.12-9.52L397.12-9.52Q395.80-9.52 394.04-9.52L394.04-9.52Q392.29-9.52 390.97-9.52L390.97-9.52Q387.60-9.52 386.50-9.23Q385.40-8.94 385.40-7.62L385.40-7.62Q385.40-7.32 385.40-7.03Z"/>
    </svg>
        