<svg width="266" height="266" version="1.1" xmlns="http://www.w3.org/2000/svg" xmlns:xlink="http://www.w3.org/1999/xlink"><path d="M184.60 58.87L184.60 58.87Q184.60 63.66 177.95 66.05L177.95 66.05Q174.23 67.38 173.17 67.91L173.17 67.91L141.25 86.00L133.27 89.72Q131.67 89.72 131.67 87.06L131.67 87.06L151.09 66.05Q157.21 58.60 159.87 53.02L159.87 53.02Q160.13 52.48 159.87 47.43L159.87 47.43Q159.87 44.77 161.73 44.24L161.73 44.24Q175.29 44.50 184.60 58.87ZM116.51 120.85L116.51 120.85Q98.95 122.44 90.71 125.10L90.71 125.10Q102.94 132.55 104.01 139.47L104.01 139.47Q99.22 145.32 86.45 166.86L86.45 166.86Q78.47 180.16 71.55 187.61L71.55 187.61Q50.54 209.96 18.62 220.86L18.62 220.86L13.83 220.06L13.83 219.27Q67.30 183.62 79.27 149.04L79.27 149.04Q83.26 137.87 83.26 126.70L83.26 126.70Q72.09 126.96 57.46 131.49L57.46 131.49L48.68 134.15Q42.29 135.21 35.64 132.82L35.64 132.82Q29.79 130.69 27.93 126.96L27.93 126.96Q28.46 125.63 30.32 125.10L30.32 125.10L105.87 113.66Q108.00 62.33 105.34 41.05L105.34 41.05Q104.80 37.59 104.27 35.19L104.27 35.19Q104.01 33.86 99.75 26.15L99.75 26.15Q97.89 22.69 97.89 19.77L97.89 19.77Q101.88 13.65 116.51 21.63L116.51 21.63Q123.69 25.35 126.08 28.54L126.08 28.54Q121.30 53.55 117.31 111.27L117.31 111.27Q121.56 111.80 161.73 103.02L161.73 103.02Q174.23 100.36 178.49 99.83L178.49 99.83Q183.81 99.30 193.91 104.09L193.91 104.09Q202.69 108.61 202.69 112.33L202.69 112.33Q202.69 117.12 174.50 116.59L174.50 116.59Q148.96 116.86 127.95 120.05L127.95 120.05L137.79 127.50Q139.38 129.09 140.45 130.69L140.45 130.69Q140.45 133.88 136.99 145.58L136.99 145.58Q136.46 147.45 136.19 149.04L136.19 149.04Q129.54 182.29 133.80 200.38L133.80 200.38L134.86 204.10Q142.04 211.55 157.74 211.55L157.74 211.55Q197.90 211.55 207.21 202.51L207.21 202.51Q207.75 201.98 208.01 201.71L208.01 201.71Q210.41 195.59 214.93 171.65L214.93 171.65Q215.73 167.13 216.52 163.41L216.52 163.41L218.92 162.61L221.05 166.33Q223.17 183.36 230.36 209.16L230.36 209.16Q230.89 210.22 230.89 211.82L230.89 211.82Q230.89 214.74 228.23 217.67L228.23 217.67Q220.78 225.65 192.32 227.78L192.32 227.78Q155.88 230.70 135.13 219.80L135.13 219.80Q124.22 213.95 121.56 204.90L121.56 204.90Q117.84 192.67 120.50 166.33L120.50 166.33Q122.89 140.00 119.17 128.03L119.17 128.03Q118.10 124.30 116.51 120.85ZM90.71 89.72L90.71 89.72Q88.31 104.89 75.54 93.98L75.54 93.98Q65.70 85.47 60.65 73.76L60.65 73.76Q59.32 70.84 59.32 69.24L59.32 69.24Q64.90 66.58 79.53 75.09L79.53 75.09Q83.26 77.22 85.12 78.82L85.12 78.82Q89.38 82.54 90.71 89.72Z" stroke="#000" fill="black" /></svg>