<svg width="266" height="266" version="1.1" xmlns="http://www.w3.org/2000/svg" xmlns:xlink="http://www.w3.org/1999/xlink"><path d="M230.36 121.06L230.36 121.06L228.76 122.66Q208.81 127.71 186.20 127.71L186.20 127.71Q168.38 118.93 142.04 93.40L142.04 93.40L123.16 75.58L121.83 106.43Q120.76 117.87 117.84 117.87L117.84 117.87L116.51 117.34Q109.86 110.42 111.19 89.67L111.19 89.67Q111.72 81.69 111.72 79.30L111.72 79.30Q62.78 132.23 32.72 135.69L32.72 135.69L28.99 135.16Q28.20 134.89 27.40 134.36L27.40 134.36Q31.39 130.90 46.82 121.33L46.82 121.33Q48.94 120.00 50.54 118.93L50.54 118.93Q87.51 93.93 102.68 68.93L102.68 68.93Q100.02 68.93 83.26 71.85L83.26 71.85Q65.17 75.04 57.19 66.27L57.19 66.27Q56.66 66.00 56.13 65.47L56.13 65.47Q56.13 63.61 59.05 62.54L59.05 62.54L111.45 58.02L112.25 57.49L110.39 39.13Q109.33 34.08 107.20 30.09L107.20 30.09Q106.13 22.64 115.71 26.10L115.71 26.10Q124.75 29.56 130.34 35.41L130.34 35.41Q130.07 38.34 125.55 52.17L125.55 52.17L124.75 55.36Q128.74 55.09 148.43 50.84L148.43 50.84Q170.51 46.32 179.02 54.03L179.02 54.03Q179.55 54.30 179.82 54.83L179.82 54.83Q180.88 55.89 180.88 58.02L180.88 58.02L178.49 60.15Q144.97 62.28 124.49 65.47L124.49 65.47Q123.69 66.00 123.69 67.60L123.69 67.60Q147.63 87.28 167.05 97.92L167.05 97.92Q171.30 100.05 174.23 101.11L174.23 101.11L214.66 115.21Q228.49 119.73 229.29 120.26L229.29 120.26Q229.56 120.53 230.36 121.06ZM226.10 173.73L226.10 173.73Q223.17 176.12 218.39 176.12L218.39 176.12L177.95 175.06L177.69 175.06L129.28 176.66L130.87 214.43Q130.34 241.83 115.98 253.53L115.98 253.53Q113.58 253.53 109.59 249.27L109.59 249.27Q105.60 245.28 86.72 228.53L86.72 228.53Q85.12 227.20 83.79 225.87L83.79 225.87L83.79 225.33L111.99 227.46L112.25 227.46Q119.97 215.76 117.04 189.16L117.04 189.16Q116.24 182.51 114.91 177.19L114.91 177.19Q80.07 180.38 58.52 184.37L58.52 184.37L35.11 189.42Q33.78 189.42 32.72 189.69L32.72 189.69Q25.54 190.49 18.89 185.43L18.89 185.43Q16.49 183.84 14.36 181.44L14.36 181.44Q14.36 178.52 15.43 178.52L15.43 178.52L113.05 169.47Q112.52 165.48 106.13 159.90L106.13 159.90L102.41 156.44L102.41 150.59Q107.20 150.59 115.71 156.17L115.71 156.17Q117.04 156.97 118.10 157.50L118.10 157.50L135.39 134.36Q135.39 130.90 133 129.84L133 129.84Q115.44 132.23 89.11 142.61L89.11 142.61Q77.14 142.61 73.42 136.22L73.42 136.22Q72.62 134.89 72.62 133.30L72.62 133.30L73.15 132.50L74.48 131.70Q91.50 133.30 114.65 125.85L114.65 125.85L123.96 122.66L124.49 122.66L135.66 119.47Q136.19 119.47 136.46 119.47L136.46 119.47Q144.44 118.93 155.34 128.51L155.34 128.51Q156.94 129.84 158.54 131.70L158.54 131.70L158.80 135.16Q157.74 136.49 151.62 138.88L151.62 138.88L150.02 139.68Q136.99 146.07 121.83 159.37L121.83 159.37Q123.69 159.90 125.82 165.22L125.82 165.22Q127.95 170.01 132.47 167.35L132.47 167.35L195.24 158.30Q204.82 156.97 214.66 160.96L214.66 160.96Q224.77 164.95 226.10 171.87L226.10 171.87Q226.10 172.67 226.10 173.73Z" stroke="#000" fill="black" /></svg>