<svg width="266" height="266" version="1.1" xmlns="http://www.w3.org/2000/svg" xmlns:xlink="http://www.w3.org/1999/xlink"><path d="M223.97 23.67L223.97 23.67Q223.97 26.33 219.72 31.65L219.72 31.65L217.59 34.58Q214.66 40.70 211.74 63.04L211.74 63.04Q208.81 85.12 202.16 90.44L202.16 90.44Q199.77 90.44 197.64 86.72L197.64 86.72L199.23 75.54Q202.96 48.68 202.96 26.60L202.96 26.60Q202.96 24.74 200.03 23.14L200.03 23.14Q197.37 23.14 185.93 26.33L185.93 26.33L179.02 27.93Q173.70 27.93 169.71 24.21L169.71 24.21Q170.51 22.88 174.50 22.08L174.50 22.08Q175.56 21.81 176.09 21.55L176.09 21.55L201.63 14.63L204.29 14.10Q217.85 17.56 223.97 23.67ZM184.87 53.20L184.87 53.20Q178.49 52.14 170.51 42.03L170.51 42.03Q169.18 40.17 168.64 39.63L168.64 39.63L168.91 36.44L180.88 40.17Q184.87 42.03 185.93 45.22L185.93 45.22Q186.47 46.55 186.73 48.15L186.73 48.15Q186.73 52.40 184.87 53.20ZM193.91 57.19L195.51 57.19L194.98 58.79L172.90 80.33Q172.63 80.33 161.99 77.14L161.99 77.14Q161.20 76.34 161.20 72.88L161.20 72.88Q168.91 70.22 192.58 57.99L192.58 57.99Q193.38 57.72 193.91 57.19L193.91 57.19ZM144.70 90.44L144.70 90.44Q142.04 87.25 142.04 83.26L142.04 83.26L144.17 67.03L146.03 41.23Q146.03 33.78 144.44 30.32L144.44 30.32Q143.37 26.87 134.60 30.32L134.60 30.32Q121.03 35.38 115.44 34.05L115.44 34.05L111.99 32.72Q112.25 30.06 135.13 22.88L135.13 22.88Q145.24 19.95 148.43 19.95L148.43 19.95Q163.86 25.80 164.39 28.99L164.39 28.99Q164.39 30.06 159.87 35.64L159.87 35.64Q158.54 37.51 158.00 38.57L158.00 38.57Q156.14 43.09 153.48 69.43L153.48 69.43L151.35 83.52L149.49 88.31Q147.10 90.44 144.70 90.44ZM183.54 104.01L183.54 104.01L178.49 104.01L164.65 91.77Q163.06 90.44 161.99 89.11L161.99 89.11Q161.99 86.98 162.79 86.18L162.79 86.18L175.83 89.11Q183.54 91.77 184.34 97.62L184.34 97.62Q184.34 103.21 183.54 104.01ZM117.84 47.35L116.77 45.75L117.57 43.09L130.87 47.35Q133.80 48.94 135.13 51.60L135.13 51.60Q135.39 52.14 135.39 52.67L135.39 52.67Q136.46 55.33 135.66 57.19L135.66 57.19L134.60 58.52L133.80 58.79Q128.74 60.65 117.84 47.35L117.84 47.35ZM139.38 65.97L139.38 65.97Q139.38 68.63 125.82 83.79L125.82 83.79Q122.09 87.78 121.30 89.38L121.30 89.38L118.37 91.50L107.46 88.84Q105.34 87.78 104.27 85.92L104.27 85.92Q105.34 83.26 139.38 65.97ZM108.79 52.93L110.39 54.80Q110.12 56.13 107.73 57.19L107.73 57.19L105.87 58.52L87.51 74.21Q86.18 75.28 84.59 76.34L84.59 76.34Q84.32 76.08 91.24 59.85L91.24 59.85Q95.49 50.27 95.49 46.82L95.49 46.82Q101.35 44.69 108.79 52.93L108.79 52.93ZM233.28 187.26L233.81 189.66L231.42 191.52Q183.01 192.58 162.53 196.04L162.53 196.04Q153.48 197.64 145.24 200.03L145.24 200.03L135.93 198.70L133.27 214.40Q131.94 217.85 129.54 220.25L129.54 220.25Q123.96 220.25 120.76 209.08L120.76 209.08Q119.97 205.88 119.97 203.76L119.97 203.76Q119.97 201.36 122.89 187.26L122.89 187.26Q123.16 185.93 123.16 184.60L123.16 184.60Q128.21 153.22 125.55 139.12L125.55 139.12Q124.22 131.67 121.30 125.82L121.30 125.82Q107.73 136.72 100.02 138.32L100.02 138.32Q97.36 139.12 94.70 139.12L94.70 139.12L94.70 138.32Q113.85 121.30 120.23 112.78L120.23 112.78Q125.02 106.40 127.95 100.02L127.95 100.02Q127.95 96.29 129.54 95.23L129.54 95.23Q139.65 95.23 144.17 100.02L144.17 100.02L144.17 102.68L127.95 120.50L138.59 131.14Q139.92 134.33 138.05 143.64L138.05 143.64Q137.52 145.77 137.52 147.36L137.52 147.36L135.39 190.99Q139.38 190.99 164.12 187.00L164.12 187.00Q167.85 186.47 171.04 186.20L171.04 186.20L171.04 168.11Q162.79 169.71 156.67 168.38L156.67 168.38L151.35 166.25L149.23 164.92Q149.76 161.73 171.57 160.66L171.57 160.66L172.10 146.03L159.07 146.30L153.75 144.70Q151.35 143.37 150.02 141.25L150.02 141.25L152.15 139.92L171.84 137.26L172.10 137.26Q172.10 126.62 168.91 122.09L168.91 122.09Q156.67 123.42 152.68 121.56L152.68 121.56L149.49 119.17L148.43 117.57Q151.09 116.51 164.92 114.38L164.92 114.38Q166.25 114.11 167.31 113.85L167.31 113.85L199.77 105.60Q204.82 104.54 209.34 104.27L209.34 104.27Q214.66 106.67 215.99 108.53L215.99 108.53L215.19 110.12Q206.95 112.78 178.75 119.97L178.75 119.97Q179.82 121.30 184.07 125.02L184.07 125.02Q185.67 126.08 185.93 127.41L185.93 127.41Q186.73 129.54 184.87 134.06L184.87 134.06Q198.70 128.74 205.35 133.27L205.35 133.27Q206.68 134.06 207.75 135.39L207.75 135.39Q207.48 138.85 190.46 142.04L190.46 142.04Q185.40 143.11 184.07 143.64L184.07 143.64L183.27 157.47L199.23 153.48L201.36 153.48Q207.48 153.48 210.67 156.41L210.67 156.41L211.74 158.27Q211.74 159.07 210.94 160.13L210.94 160.13Q198.44 163.86 183.27 165.98L183.27 165.98L182.48 166.78L180.88 184.60Q184.34 184.60 202.69 180.61L202.69 180.61Q221.84 176.62 230.89 184.60L230.89 184.60Q232.22 185.67 233.28 187.26L233.28 187.26ZM52.67 69.96L52.67 69.96Q54.53 77.14 52.67 81.40L52.67 81.40Q50.54 85.39 44.95 82.73L44.95 82.73Q32.45 66.23 31.39 64.37L31.39 64.37Q30.86 63.57 30.59 63.04L30.59 63.04L31.12 58.79Q46.28 63.57 52.67 69.96ZM110.39 153.22L110.39 156.14L86.18 185.93L76.61 200.30Q76.34 200.83 76.08 200.83L76.08 200.83Q75.01 201.63 71.29 201.63L71.29 201.63Q64.90 194.98 64.90 184.60L64.90 184.60Q71.02 176.09 71.82 151.09L71.82 151.09Q72.35 131.94 67.83 125.02L67.83 125.02Q43.89 166.78 24.74 182.21L24.74 182.21Q16.76 188.59 11.17 188.86L11.17 188.86L10.91 186.73Q46.82 149.23 59.32 114.65L59.32 114.65Q59.32 107.46 58.79 105.60L58.79 105.60Q56.39 105.87 40.70 110.92L40.70 110.92Q23.94 116.51 15.16 108.79L15.16 108.79Q14.36 108.26 13.83 107.73L13.83 107.73Q13.83 104.80 16.49 104.01L16.49 104.01Q17.82 103.47 30.59 101.88L30.59 101.88Q31.12 101.88 31.65 101.61L31.65 101.61Q42.83 100.02 65.17 95.76L65.17 95.76Q67.03 91.24 65.97 52.14L65.97 52.14Q65.17 33.78 64.37 30.32L64.37 30.32L59.85 21.81Q59.58 20.48 59.58 19.42L59.58 19.42Q62.24 16.76 68.63 18.35L68.63 18.35Q69.96 18.62 70.76 18.89L70.76 18.89Q79.53 22.88 80.60 23.94L80.60 23.94Q81.93 25.27 82.99 26.60L82.99 26.60Q79.53 40.70 76.34 77.67L76.34 77.67Q75.81 86.72 75.01 92.83L75.01 92.83L90.97 90.17Q98.42 89.91 102.41 94.43L102.41 94.43Q102.41 97.09 100.02 97.89L100.02 97.89L89.64 98.95Q85.12 99.48 68.63 103.74L68.63 103.74Q74.75 109.33 74.75 114.65L74.75 114.65L70.76 119.97Q75.54 120.23 82.19 127.68L82.19 127.68L83.26 128.74L79.80 169.97L79.80 172.63L81.13 173.70L107.46 154.81Q109.06 154.01 110.39 153.22L110.39 153.22Z" stroke="#000" fill="black" /></svg>