<?xml version="1.0" encoding="UTF-8" standalone="no"?>
<!-- Created with Inkscape (http://www.inkscape.org/) -->

<svg
   xmlns:dc="http://purl.org/dc/elements/1.1/"
   xmlns:cc="http://creativecommons.org/ns#"
   xmlns:rdf="http://www.w3.org/1999/02/22-rdf-syntax-ns#"
   xmlns:svg="http://www.w3.org/2000/svg"
   xmlns="http://www.w3.org/2000/svg"
   version="1.1"
   width="88"
   height="31"
   viewBox="0 0 24.835556 8.7488891"
   id="svg2"
   xml:space="preserve"
   style="fill-rule:evenodd"><metadata
   id="metadata22"><rdf:RDF><cc:Work
       rdf:about=""><dc:format>image/svg+xml</dc:format><dc:type
         rdf:resource="http://purl.org/dc/dcmitype/StillImage" /><dc:title></dc:title></cc:Work></rdf:RDF></metadata>
 <defs
   id="defs4"><style
     type="text/css"
     id="style6" /></defs>
 <polygon
   points="149,132.976 149,163.976 61,163.976 61,132.976 "
   transform="matrix(0.28222223,0,0,0.28222223,-17.215557,-37.528783)"
   id="polygon10"
   style="fill:#666666;fill-opacity:1" /><polygon
   points="89.4335,133.024 89.4335,163.976 61,163.976 61,133.024 "
   transform="matrix(0.28222223,0,0,0.28222223,-17.215557,-37.528783)"
   id="polygon12"
   style="fill:#336699;fill-opacity:1" /><path
   d="m 5.0028106,3.7841767 0.858718,0 0.06641,0.0939 c -0.09601,0.13352 -0.287923,0.28731 -0.425902,0.35953 -0.06392,-0.1789 -0.387378,-0.15113 -0.533569,-0.15113 l -0.241582,2.08613 c -0.097582,0.8426439 -0.480455,1.81551 -1.237714,2.27502 l -0.08701,-0.21181 c 0.54991,-0.30302 0.7430998,-1.3168372 0.808341,-1.88118 l 0.262212,-2.26816 -0.490502,0 -0.05038,-0.1042 0.338921,-0.19806 0.235148,0 c 0.04448,-0.36523 0.1228853,-0.6430977 0.248863,-0.98583 0.4279963,-1.1643977 2.463574,-1.6989 2.227637,0.0893 -0.145683,1.10411 -0.3888045,2.2086165 -0.479242,3.31831 -0.00804,0.098696 -0.04851,0.3593 0.108966,0.3593 0.146304,0 0.28925,-0.0616 0.424039,-0.11213 l 0.04882,0.12587 c -0.229813,0.16784 -0.4815505,0.2888139 -0.725085,0.36712 -0.4511845,0.1450739 -0.4036849,-0.4054129 -0.369485,-0.67282 0.1548601,-1.2108429 0.3705381,-2.4118989 0.520248,-3.62382 0.085519,-0.6922889 -1.1730241,-0.8235193 -1.3876275,0.3206 -0.050564,0.2695707 -0.086758,0.54216 -0.1202245,0.81406 z m -2.370723,0.30243 c 0.540794,0 0.771878,0.50467 0.715575,1.25955 -0.04479,0.60046 -0.340417,1.24652 -0.832161,1.24652 -0.477125,0 -0.789432,-0.58984 -0.732677,-1.26952 0.05701,-0.6828 0.347613,-1.23655 0.849263,-1.23655 z m 0.254085,-0.39201 c -0.659723,0 -1.4626971,0.7367406 -1.569212,1.63841 -0.1050951,0.8896506 0.217791,1.63847 0.936103,1.63847 0.718312,0 1.435382,-0.85694 1.555214,-1.63847 0.15477,-1.00934 -0.203793,-1.63841 -0.922105,-1.63841 z"
   id="path14"
   style="fill:#ffffff;fill-rule:nonzero" /><path
   d="m 21.549529,3.7208767 -0.986706,-1.30697 c -0.03573,-0.0474 -0.08334,-0.098 -0.08334,0 l 0,0.87658 c 0,0.24212 0.02009,0.2741 0.228487,0.29645 0.0173,0.0195 0.01727,0.0815 0,0.10095 l -0.589393,0 c -0.01736,-0.0195 -0.01733,-0.0815 0,-0.10095 0.206136,-0.0197 0.228488,-0.0621 0.228488,-0.29549 l 0,-1.2267 c -0.01787,-0.0962 -0.105636,-0.18763 -0.20701,-0.18763 -0.01668,-0.0199 -0.01671,-0.081 0,-0.10095 l 0.428018,0 0.932772,1.23362 c 0.0326,0.0413 0.07061,0.0649 0.07061,-0.0104 l 0,-0.83075 c 0,-0.22093 -0.01564,-0.2811 -0.229785,-0.29744 -0.01451,-0.0154 -0.01993,-0.0827 0,-0.0951 l 0.589365,0 c 0.01733,0.0195 0.0173,0.0815 0,0.10095 -0.206305,0.02 -0.228459,0.0632 -0.228459,0.29648 l 0.01273,1.51139 c -0.05464,0.03066 -0.10366,0.03596 -0.165777,0.03596 z m -1.590407,-1.00799 c 0,0.54297 -0.299918,1.00116 -0.868313,1.00116 -0.520813,0 -0.859536,-0.43581 -0.859536,-0.94206 0,-0.51305 0.300369,-1.03172 0.856911,-1.03172 0.540851,0 0.870938,0.45181 0.870938,0.97262 z m -0.902095,-0.8485 c -0.390003,0 -0.428893,0.58214 -0.428893,0.8485 0,0.30853 0.09728,0.87706 0.515281,0.87706 0.367228,0 0.418818,-0.55631 0.418818,-0.815 0,-0.32492 -0.08594,-0.91056 -0.505206,-0.91056 z m -1.474809,1.72407 c 0.02692,0.0172 0.02695,0.0824 0,0.0995 l -0.831032,0 c -0.02687,-0.0176 -0.02681,-0.0818 0,-0.0995 0.183642,0 0.218412,-0.0669 0.218412,-0.26295 l 0,-1.18387 c 0,-0.21796 -0.02997,-0.26591 -0.229785,-0.26591 -0.01733,-0.0184 -0.01733,-0.0811 0,-0.0995 l 1.194534,0 c 0.04651,0 0.08949,-0.003 0.129822,-0.009 0.007,0 0.01013,0.003 0.01053,0.009 l 0.03071,0.4432 c -0.03071,0.0173 -0.06844,0.0222 -0.113143,0.0143 -0.05856,-0.19731 -0.104451,-0.33043 -0.309598,-0.33043 l -0.237716,0 c -0.07002,0 -0.107865,0.0845 -0.107865,0.14427 l 0,0.61756 0.213134,0 c 0.149437,0 0.232974,-0.0226 0.240312,-0.18613 0.01727,-0.0227 0.0959,-0.0227 0.113143,0 l 0,0.5126 c -0.01784,0.019 -0.09528,0.0189 -0.113143,0 -0.0097,-0.15251 -0.09878,-0.18956 -0.240312,-0.18956 l -0.213134,0 -3e-6,0.52348 c -1e-6,0.20172 0.06082,0.26294 0.245134,0.26294 z m -1.978237,0.13242 -0.986705,-1.30697 c -0.03573,-0.0474 -0.08334,-0.098 -0.08334,0 l 0,0.87658 c 0,0.24212 0.02009,0.2741 0.228487,0.29645 0.0173,0.0195 0.01727,0.0815 0,0.10095 l -0.589393,0 c -0.01736,-0.0195 -0.01733,-0.0815 0,-0.10095 0.206135,-0.0197 0.228487,-0.0621 0.228487,-0.29549 l 0,-1.2267 c -0.01787,-0.0962 -0.105636,-0.18763 -0.20701,-0.18763 -0.01668,-0.0199 -0.01671,-0.081 0,-0.10095 l 0.428018,0 0.932773,1.23362 c 0.0326,0.0413 0.07061,0.0649 0.07061,-0.0104 l 0,-0.83075 c 0,-0.22093 -0.01564,-0.2811 -0.229785,-0.29744 -0.01451,-0.0154 -0.01993,-0.0827 0,-0.0951 l 0.589364,0 c 0.01733,0.0195 0.0173,0.0815 0,0.10095 -0.206304,0.02 -0.228459,0.0632 -0.228459,0.29648 l 0.01273,1.51139 c -0.05464,0.03066 -0.103661,0.03596 -0.165777,0.03596 z m -2.005443,-1.30396 c 0.01741,-0.0195 0.09576,-0.0196 0.113143,0 l 0,0.51512 c -0.01784,0.0189 -0.09528,0.0189 -0.113143,0 -0.0097,-0.1587 -0.0992,-0.18912 -0.240312,-0.18912 l -0.213134,0 0,0.67663 c 0,0.0615 0.03627,0.14133 0.107865,0.14133 l 0.265769,0 c 0.214912,0 0.326023,-0.19247 0.371433,-0.37817 0.03536,-0.009 0.08707,-0.005 0.11842,0.0148 l -0.07061,0.49047 -1.39017,0 c -0.0173,-0.0184 -0.01727,-0.0811 0,-0.0995 0.202889,-0.002 0.229785,-0.0384 0.229785,-0.26295 l 0,-1.18387 c 0,-0.21985 -0.02994,-0.26591 -0.229785,-0.26591 -0.0173,-0.0184 -0.0173,-0.0811 0,-0.0995 l 1.181862,0 c 0.04518,0 0.08814,-0.003 0.128496,-0.009 0.0075,0 0.0114,0.003 0.0114,0.009 l 0.03113,0.43138 c -0.03113,0.0172 -0.06886,0.0222 -0.113143,0.0143 -0.05537,-0.18726 -0.106624,-0.31863 -0.310925,-0.31863 l -0.223661,0 c -0.07002,0 -0.107865,0.0845 -0.107865,0.14427 l 0,0.55846 0.213134,-1e-5 c 0.151468,-1e-5 0.232945,-0.01571 0.240311,-0.1891 z m -1.139754,-0.15609 c 0.0041,0.42166 -0.262551,0.61767 -0.675781,0.60618 -0.0948,-0.003 -0.145175,-0.0221 -0.145175,-0.13247 0.03686,0.005 0.08114,0.008 0.132447,0.008 0.2586,0 0.291648,-0.22572 0.291648,-0.4368 0,-0.28758 -0.109643,-0.4314 -0.32893,-0.4314 -0.163774,0 -0.158298,0.0986 -0.158298,0.26297 l 0,1.18782 c 0,0.19417 0.03485,0.26295 0.218411,0.26295 0.0269,0.0172 0.02695,0.0823 0,0.0995 -0.268365,0 -0.536786,0 -0.805151,0 -0.02695,-0.0171 -0.02692,-0.0824 0,-0.0995 0.183557,0 0.218355,-0.0689 0.218355,-0.26295 l 0,-1.18635 c 0,-0.19414 -0.03477,-0.26295 -0.218355,-0.26295 -0.02712,-0.0203 -0.02721,-0.0925 0,-0.1128 0.276549,0 0.553155,0 0.829705,1.9e-4 0.356813,1.9e-4 0.637427,0.12183 0.641124,0.49761 z m -1.647134,0.45206 c 0,0.54297 -0.299917,1.00116 -0.8683134,1.00116 -0.520813,0 -0.859536,-0.43581 -0.859536,-0.94206 0,-0.51305 0.300369,-1.03172 0.856912,-1.03172 0.5408504,0 0.8709374,0.45181 0.8709374,0.97262 z m -0.9020954,-0.8485 c -0.390003,0 -0.428893,0.58214 -0.428893,0.8485 0,0.30853 0.09728,0.87706 0.515281,0.87706 0.3672284,0 0.4188184,-0.55631 0.4188184,-0.815 0,-0.32492 -0.08594,-0.91056 -0.5052064,-0.91056 z m 13.4118214,1.72407 c 0.01668,0.0188 0.01671,0.0807 0,0.0995 -0.292918,0 -0.585921,0 -0.87884,0 -0.01736,-0.0183 -0.0173,-0.0811 0,-0.0995 0.211187,0 0.255665,-0.0215 0.255665,-0.26591 l 0,-1.13214 c 0,-0.0845 0.0045,-0.29306 -0.124544,-0.29306 l -0.128496,0 c -0.20272,0 -0.292523,0.1147 -0.334179,0.31321 -0.04691,0 -0.08156,-0.005 -0.102616,-0.0143 0.03423,-0.16253 0.05613,-0.30632 0.06536,-0.43138 0,-0.006 0.004,-0.009 0.01137,-0.009 0.178505,0.0153 0.382411,0.0232 0.613099,0.0232 l 0.370135,0 c 0.232861,0 0.429316,-0.008 0.589393,-0.0232 0.0017,0 0.0035,8.5e-4 0.0052,0.003 0.0017,0.003 0.0025,0.004 0.0025,0.005 0.0025,0.12556 0.01405,0.2669 0.03466,0.42249 -0.01973,0.01 -0.05396,0.0143 -0.102616,0.0143 -0.04016,-0.19978 -0.143764,-0.30435 -0.352129,-0.30435 l -0.05791,0 c -0.12937,0 -0.121926,0.21912 -0.12192,0.30192 l 8.7e-5,1.123795 c 1.9e-5,0.242775 0.04423,0.266425 0.255781,0.266425 z"
   id="path16"
   style="fill:#ffffff;fill-rule:nonzero" /><path
   d="m 16.374702,6.8316267 -0.986705,-1.30698 c -0.03573,-0.0473 -0.08334,-0.098 -0.08334,0 l 0,0.87659 c 0,0.24211 0.02009,0.27409 0.228488,0.29644 0.0173,0.0195 0.01727,0.0815 0,0.10095 l -0.589393,0 c -0.01736,-0.0195 -0.01733,-0.0815 0,-0.10095 0.206135,-0.0197 0.228487,-0.0621 0.228487,-0.29548 l 0,-1.22671 c -0.01787,-0.0962 -0.105636,-0.18762 -0.20701,-0.18762 -0.01668,-0.0199 -0.01671,-0.081 0,-0.10095 l 0.428018,0 0.932773,1.23362 c 0.0326,0.0413 0.07061,0.0649 0.07061,-0.0104 l 0,-0.83075 c 0,-0.22092 -0.01564,-0.28109 -0.229786,-0.29743 -0.01451,-0.0154 -0.01993,-0.0827 0,-0.0951 l 0.589365,0 c 0.01733,0.0194 0.0173,0.0815 0,0.10095 -0.206304,0.02 -0.228459,0.0632 -0.228459,0.29647 l 0.01273,1.51134 c -0.05464,0.03071 -0.103661,0.03601 -0.165778,0.03601 z m 2.854424,-1.30405 c 0.01741,-0.0195 0.09576,-0.0196 0.113143,0 l 0,0.51511 c -0.01784,0.0189 -0.09528,0.0189 -0.113143,0 -0.0097,-0.15869 -0.0992,-0.18912 -0.240312,-0.18912 l -0.213135,0 0,0.67663 c 0,0.0615 0.03627,0.14134 0.107866,0.14134 l 0.265768,0 c 0.214913,0 0.326024,-0.19248 0.371433,-0.37818 0.03536,-0.009 0.08707,-0.005 0.118421,0.0148 l -0.07061,0.49047 -1.390171,0 c -0.0173,-0.0184 -0.01727,-0.0811 0,-0.0995 0.20289,-0.002 0.229786,-0.0384 0.229786,-0.26295 l 0,-1.18386 c 0,-0.21985 -0.02994,-0.26591 -0.229786,-0.26591 -0.0173,-0.0184 -0.0173,-0.0811 0,-0.0995 l 1.181862,0 c 0.04518,0 0.08814,-0.003 0.128496,-0.009 0.0075,0 0.0114,0.003 0.0114,0.009 l 0.03113,0.43137 c -0.03113,0.0173 -0.06886,0.0222 -0.113143,0.0143 -0.05537,-0.18725 -0.106623,-0.31863 -0.310924,-0.31863 l -0.223661,0 c -0.07002,0 -0.107866,0.0845 -0.107866,0.14427 l 0,0.55847 0.213134,-1e-5 c 0.151468,-10e-6 0.232946,-0.01571 0.240312,-0.1891 z m -4.859895,0 c 0.01741,-0.0195 0.09576,-0.0196 0.113143,0 l 0,0.51511 c -0.01784,0.0189 -0.09528,0.0189 -0.113143,0 -0.0097,-0.15869 -0.0992,-0.18912 -0.240312,-0.18912 l -0.213135,0 0,0.67663 c 0,0.0615 0.03627,0.14134 0.107866,0.14134 l 0.265768,0 c 0.214913,0 0.326024,-0.19248 0.371433,-0.37818 0.03536,-0.009 0.08707,-0.005 0.118421,0.0148 l -0.07061,0.49047 -1.390171,0 c -0.0173,-0.0184 -0.01727,-0.0811 0,-0.0995 0.20289,-0.002 0.229786,-0.0384 0.229786,-0.26295 l 0,-1.18386 c 0,-0.21985 -0.02994,-0.26591 -0.229786,-0.26591 -0.0173,-0.0184 -0.0173,-0.0811 0,-0.0995 l 1.181862,0 c 0.04518,0 0.08814,-0.003 0.128496,-0.009 0.0075,0 0.0114,0.003 0.0114,0.009 l 0.03113,0.43137 c -0.03113,0.0173 -0.06886,0.0222 -0.113143,0.0143 -0.05537,-0.18725 -0.106623,-0.31863 -0.310924,-0.31863 l -0.223661,0 c -0.07002,0 -0.107866,0.0845 -0.107866,0.14427 l 0,0.55847 0.213135,-1e-5 c 0.151467,-10e-6 0.232945,-0.01571 0.240311,-0.1891 z m 3.593533,-0.14724 c -0.02969,0.0312 -0.09556,0.0249 -0.132418,0.0118 -0.04304,-0.17958 -0.119493,-0.42009 -0.344283,-0.42009 -0.152795,0 -0.223633,0.12844 -0.223633,0.26696 0,0.16261 0.162758,0.30457 0.291648,0.38114 0.154517,0.0889 0.308046,0.19566 0.404848,0.34874 0.239692,0.37812 -0.05103,0.85005 -0.490812,0.85581 -0.355121,0.005 -0.349787,-0.0547 -0.521858,-0.0576 -0.03333,-0.12409 -0.05001,-0.2866 -0.05001,-0.48754 0.06186,-0.0178 0.105692,-0.0207 0.132447,-0.0103 0.0357,0.20885 0.182626,0.43141 0.409589,0.43141 0.146275,0 0.273671,-0.0899 0.273671,-0.24528 0,-0.12517 -0.06548,-0.2181 -0.150905,-0.30161 -0.120734,-0.11789 -0.274376,-0.19107 -0.40386,-0.29868 -0.154065,-0.12652 -0.223661,-0.29396 -0.223661,-0.49194 0,-0.29693 0.271978,-0.51218 0.555188,-0.51218 0.223407,0 0.289306,0.0534 0.444247,0.080755 0.01973,0.188565 0.0298,0.338285 0.0298,0.448605 z m -6.42854,0.53981 c -0.02613,-0.58087 0.321592,-1.06923 0.948125,-1.06923 0.271047,0 0.374707,0.0867 0.576693,0.13739 0.03158,0.22851 0.05088,0.38461 0.05788,0.46834 -0.03155,0.0182 -0.07812,0.0264 -0.113143,0.0148 -0.08811,-0.31457 -0.222814,-0.49641 -0.549938,-0.49641 -0.428611,0 -0.541118,0.5954908 -0.52149,0.91824 0.018,0.2959408 0.179013,0.77829 0.544745,0.77829 0.224536,0 0.419213,-0.10245 0.584567,-0.30729 0.03226,0 0.07321,0.0383 0.08594,0.066 -0.176417,0.25679 -0.425938,0.4071402 -0.74089,0.3928 -0.536766,-0.02444 -0.84771,-0.35209 -0.872489,-0.90293 z m -0.764371,-0.67082 c 0,-0.1991 -0.03483,-0.26297 -0.218383,-0.26297 -0.02692,-0.0171 -0.02692,-0.0823 0,-0.0995 l 0.805151,0 c 0.02695,0.0172 0.02695,0.0823 0,0.0995 -0.1835,0 -0.218411,0.0639 -0.218411,0.26297 l 0,1.18681 c 0,0.19905 0.03491,0.26297 0.218411,0.26297 0.02698,0.0171 0.02695,0.0823 0,0.0995 l -0.805151,0 c -0.02692,-0.0171 -0.02695,-0.0824 0,-0.0995 0.183529,0 0.218383,-0.072 0.218383,-0.26297 z m -0.471875,1.044 c 0.04473,-0.007 0.08244,-0.003 0.113143,0.0148 -0.01535,0.15119 -0.03858,0.31468 -0.06929,0.4905 l -1.3077054,0 c -0.02692,-0.0171 -0.02695,-0.0824 0,-0.0995 0.183529,0 0.218384,-0.0666 0.218384,-0.26297 l 0,-1.18681 c 0,-0.19955 -0.03486,-0.26297 -0.218384,-0.26297 -0.02692,-0.0171 -0.02692,-0.0823 0,-0.0995 l 0.805152,0 c 0.02695,0.0172 0.02695,0.0823 0,0.0995 -0.183557,0 -0.218412,0.061 -0.218412,0.26297 l 0,1.18827 c 0,0.1561 0.03113,0.2339439 0.09254,0.23394 l 0.1583005,-10e-6 c 0.2689329,-1e-5 0.3696299,-0.15086 0.4262719,-0.37822 z"
   id="path18"
   style="fill:#ffffff;fill-rule:nonzero" />
</svg>